# xmcd
#
# Track frame offsets: 
#        150
#        19152
#        35445
#        49360
#        62407
#        71885
#        89107
#        98345
#        119690
#        131237
#        142357
#        157415
#        178967
#        190827
#        206795
#        219782
#        233482
#        244695
#        264585
#        279185
#        293052
#        309462
#
# Disc length: 4401 seconds
#
# Revision: 1
# Processed by: cddbd v1.5.2PL0 Copyright (c) Steve Scherf et al.
# Submitted via: ExactAudioCopy v1.1
#
DISCID=59112f16
DTITLE=Spade Cooley and his Western Dance Gang - Radio Broadcasts 1945
DYEAR=1998
DGENRE=Western Swing
TTITLE0=Steel Guitar Rag - Draggin' The Bow
TTITLE1=Forgive Me One More Time
TTITLE2=Whispering
TTITLE3=Navajo Trail
TTITLE4=Please Forgive Me
TTITLE5=You Can't Break My Heart
TTITLE6=Devil's Dream
TTITLE7=Blonde Fiddle Blues
TTITLE8=Dill Pickle Rag
TTITLE9=You Wuz Right Baby
TTITLE10=Crazy 'Cos I Love You
TTITLE11=Steel Guitar Rag - Home In San Antone
TTITLE12=Mad About Him Blues
TTITLE13=Night Train To Memphis
TTITLE14=Pins And Needles In My Heart
TTITLE15=Spanish Two-Step
TTITLE16=You Don't Care
TTITLE17=There's A New Moon Over My Shoulder - Shame Shame On You
TTITLE18=Fort Worth Jail
TTITLE19=Bury Me Beneath The Willow
TTITLE20=If It's Wrong To Love You
TTITLE21=Take Me Back To Tulsa - Shame Shame On You
EXTD=
EXTT0=
EXTT1=
EXTT2=
EXTT3=
EXTT4=
EXTT5=
EXTT6=
EXTT7=
EXTT8=
EXTT9=
EXTT10=
EXTT11=
EXTT12=
EXTT13=
EXTT14=
EXTT15=
EXTT16=
EXTT17=
EXTT18=
EXTT19=
EXTT20=
EXTT21=
PLAYORDER=
